{"title":"Line of Duty S03E01 x264 RB58.mp4","uid":14065381,"size":664557351,"categoryP":"video","categoryS":"tv_shows","magnet":"?xt=urn:btih:34164d89a6fa397d6e2a3b7c052fa4d4cabb02dc&amp;dn=Line+of+Duty+S03E01+x264+RB58.mp4&amp;tr=udp%3A%2F%2Ftracker.leechers-paradise.org%3A6969&amp;tr=udp%3A%2F%2Fzer0day.ch%3A1337&amp;tr=udp%3A%2F%2Fopen.demonii.com%3A1337&amp;tr=udp%3A%2F%2Ftracker.coppersurfer.tk%3A6969&amp;tr=udp%3A%2F%2Fexodus.desync.com%3A6969","seeders":0,"leechers":1,"uploader":"RedBaron58","files":1,"time":1459133906,"description":"Line of Duty S03E01 x264 mp4\r\n \nhttp://www.imdb.com/title/tt2303687/\r\n\r\nTrailer:\r\n\r\nThank you for your kind comments , your feedback is welcome.\r\n\r\n\r\nAbout the Series:\r\nReturn of the crime thriller about a police anti-corruption unit. A hardened criminal is\r\nshot dead by an armed-response unit led by Sgt Danny Waldron, who claims they were acting\r\nin self-defence when interviewed by Hastings and Arnott. To find out more, DC Kate Fleming\r\nis sent undercover into Danny's team, and she is quick to identify tensions between\r\nthe officers, only for her own conduct to come under scrutiny. Daniel Mays stars as\r\nthe suspect,\r\nStarring Vicky McClure, Martin Compston, Adrian Dunbar, Arsher Ali and Will Mellor and others.\r\n\r\n\r\nI hope you enjoy.\r\n\r\n\r\nTechnical\r\n\r\nGeneral\r\nComplete name : G:Line of Duty S03E01 x264 RB58.mp4\r\nFormat : MPEG-4\r\nFormat profile : Base Media\r\nCodec ID : isom\r\nFile size : 634 MiB\r\nDuration : 58mn 40s\r\nOverall bit rate mode : Variable\r\nOverall bit rate : 1 510 Kbps\r\nWriting application : Lavf54.63.104\r\n\r\nVideo\r\nID : 1\r\nFormat : AVC\r\nFormat/Info : Advanced Video Codec\r\nFormat profile :   \r\nFormat settings, CABAC : Yes\r\nFormat settings, ReFrames : 4 frames\r\nCodec ID : avc1\r\nCodec ID/Info : Advanced Video Coding\r\nDuration : 58mn 40s\r\nBit rate : 1 400 Kbps\r\nWidth : 832 pixels\r\nHeight : 468 pixels\r\nDisplay aspect ratio : 16:9\r\nFrame rate mode : Constant\r\nFrame rate : 25.000 fps\r\nColor space : YUV\r\nChroma subsampling : 4:2:0\r\nBit depth : 8 bits\r\nScan type : Progressive\r\nBits/(Pixel*Frame) : 0.144\r\nStream size : 583 MiB (92%)\r\nWriting library : x264 core 123 r2189 35cf912\r\nEncoding settings : cabac=1 / ref=3 / deblock=1:0:0\r\n\r\nAudio\r\nID : 2\r\nFormat : AAC\r\nFormat/Info : Advanced Audio Codec\r\nFormat profile : LC\r\nCodec ID : 40\r\nDuration : 58mn 40s\r\nBit rate mode : Variable\r\nBit rate : 113 Kbps\r\nMaximum bit rate : 128 Kbps\r\nChannel(s) : 2 channels\r\nChannel positions : Front: L R\r\nSampling rate : 48.0 KHz\r\nCompression mode : Lossy\r\nStream size : 47.5 MiB (7%)\r\nLanguage : English","torrent":{"xt":"urn:btih:34164d89a6fa397d6e2a3b7c052fa4d4cabb02dc","amp;dn":"Line+of+Duty+S03E01+x264+RB58.mp4","amp;tr":["udp%3A%2F%2Ftracker.leechers-paradise.org%3A6969","udp%3A%2F%2Fzer0day.ch%3A1337","udp%3A%2F%2Fopen.demonii.com%3A1337","udp%3A%2F%2Ftracker.coppersurfer.tk%3A6969","udp%3A%2F%2Fexodus.desync.com%3A6969"],"infoHash":"34164d89a6fa397d6e2a3b7c052fa4d4cabb02dc","infoHashBuffer":{"type":"Buffer","data":[52,22,77,137,166,250,57,125,110,42,59,124,5,47,164,212,202,187,2,220]},"announce":[],"urlList":[]}}